<svg width="17" height="14" viewBox="0 0 17 14" fill="none" xmlns="http://www.w3.org/2000/svg">
<path d="M4.62276 0C3.54211 0 2.57934 0.451909 1.85236 1.15924C1.14502 1.86658 0.693115 2.82934 0.693115 3.92964C0.693115 5.0103 1.14502 5.97306 1.85236 6.70004L8.5524 13.4001L15.2524 6.70004C15.9598 5.99271 16.4117 5.02994 16.4117 3.92964C16.4117 2.84899 15.9598 1.88623 15.2524 1.15924C14.5451 0.451909 13.5823 0 12.482 0C11.4014 0 10.4386 0.451909 9.71165 1.15924C9.00431 1.86658 8.5524 2.82934 8.5524 3.92964C8.5524 2.84899 8.10049 1.88623 7.39316 1.15924C6.68582 0.451909 5.72306 0 4.62276 0Z" fill="#F80606"/>
</svg>
